<svg width="84" height="83" viewBox="0 0 84 83" fill="none" xmlns="http://www.w3.org/2000/svg">
<g id="8666822_package_delivery_icon 8">
<path id="Vector" d="M57.3242 32.6914L26.2461 15.105" stroke="#FF8730" stroke-width="2" stroke-linecap="round" stroke-linejoin="round"/>
<path id="Vector_2" d="M72.8519 55.0556L72.8748 27.9475C72.8745 26.7591 72.5556 25.5919 71.9501 24.563C71.3446 23.534 70.4738 22.6796 69.4249 22.0854L45.253 8.53136C44.2031 7.93655 43.0118 7.62341 41.799 7.62341C40.5861 7.62341 39.3943 7.93655 38.3434 8.53136L14.1486 22.0854C13.0988 22.6796 12.2265 23.534 11.6193 24.563C11.012 25.5919 10.6912 26.7591 10.6889 27.9475L10.6661 55.0556C10.6663 56.2441 10.9852 57.4113 11.5907 58.4402C12.1962 59.4691 13.0671 60.3235 14.1159 60.9177L38.2879 74.4718C39.3377 75.0666 40.529 75.3797 41.7419 75.3797C42.9547 75.3797 44.1465 75.0666 45.1974 74.4718L69.3922 60.9177C70.442 60.3235 71.3143 59.4691 71.9216 58.4402C72.5288 57.4113 72.8497 56.2441 72.8519 55.0556Z" stroke="#FF8730" stroke-width="2" stroke-linecap="round" stroke-linejoin="round"/>
<path id="Vector_3" d="M11.6245 24.4235L41.7702 41.5354L71.9448 24.4235" stroke="#FF8730" stroke-width="2" stroke-linecap="round" stroke-linejoin="round"/>
<path id="Vector_4" d="M41.7415 75.6577L41.7703 41.5015" stroke="#FF8730" stroke-width="2" stroke-linecap="round" stroke-linejoin="round"/>
</g>
</svg>
