<svg width="139" height="27" viewBox="0 0 139 27" fill="none" xmlns="http://www.w3.org/2000/svg">
<g id="DENCO 2024" clip-path="url(#clip0_16_4729)">
<path id="Vector" d="M26.9967 6.64433C25.8361 4.66798 24.1604 3.08265 22.168 2.07635C20.097 0.991107 17.7125 0.448486 15.0147 0.448486H3.72339V7.12974H9.47625V5.40774H14.7301C17.2147 5.40774 19.1967 6.13493 20.6762 7.5893C22.1557 9.04367 22.8955 11.0124 22.8955 13.4954C22.8955 15.9809 22.1557 17.9495 20.6762 19.4015C19.1967 20.8534 17.2147 21.5842 14.7301 21.5941H9.47625V19.4033H3.72339V26.5533H15.0147C17.709 26.5533 20.0935 26.0126 22.168 24.931C24.1604 23.9247 25.8361 22.3394 26.9967 20.363C28.1446 18.3943 28.7186 16.107 28.7186 13.5009C28.7186 10.8949 28.1446 8.60933 26.9967 6.64433Z" fill="black"/>
<path id="Vector_2" d="M38.766 21.7048V15.664H50.3051V10.965H38.766V5.29701H51.8356V0.448486H33.05V26.5533H52.2924V21.7048H38.766Z" fill="black"/>
<path id="Vector_3" d="M73.986 0.448486V16.2971L61.6299 0.448486H56.8733V26.5533H62.5541V10.7048L74.9437 26.5552H79.6669V0.448486H73.986Z" fill="black"/>
<path id="Vector_4" d="M97.7742 21.8547C96.3368 21.8812 94.9175 21.5149 93.6555 20.7916C92.4671 20.1035 91.4886 19.0757 90.8335 17.8275C90.1449 16.5019 89.7962 15.0111 89.8214 13.5013C89.7962 11.9915 90.1449 10.5007 90.8335 9.1751C91.4886 7.92685 92.4671 6.89913 93.6555 6.21098C94.9175 5.48773 96.3368 5.12139 97.7742 5.14789C100.259 5.14789 102.342 6.1673 104.023 8.20613L107.713 4.62557C106.527 3.13292 105.022 1.95701 103.32 1.19451C101.476 0.377724 99.4906 -0.0288679 97.4895 0.000373788C94.9335 0.000373788 92.6316 0.578677 90.584 1.73528C88.5819 2.84209 86.9088 4.50687 85.7483 6.54689C84.5769 8.59802 83.9912 10.9162 83.9912 13.5013C83.9912 16.0864 84.5769 18.4046 85.7483 20.4557C86.9074 22.4943 88.5778 24.1589 90.577 25.2673C92.6234 26.4227 94.9136 27.0004 97.4474 27.0004C99.4621 27.0323 101.461 26.6263 103.32 25.8081C105.03 25.0396 106.537 23.8471 107.713 22.3327L104.023 18.7522C102.342 20.8205 100.259 21.8547 97.7742 21.8547Z" fill="black"/>
<path id="Vector_5" d="M128.754 19.4033C128.26 19.9518 127.69 20.4197 127.064 20.7912C125.844 21.4889 124.477 21.8545 123.088 21.8545C121.698 21.8545 120.331 21.4889 119.111 20.7912C117.937 20.0945 116.972 19.0681 116.323 17.8271C115.634 16.5015 115.285 15.0107 115.31 13.5009C115.285 11.9911 115.634 10.5003 116.323 9.17472C116.971 7.93399 117.936 6.9076 119.109 6.21061C120.329 5.51293 121.697 5.1474 123.086 5.1474C124.475 5.1474 125.842 5.51293 127.062 6.21061C127.502 6.47194 127.914 6.78126 128.292 7.13343H135.206C135.113 6.94887 135.015 6.7643 134.911 6.57974C133.735 4.53789 132.054 2.86975 130.046 1.75337C127.989 0.584456 125.669 0 123.088 0C120.506 0 118.18 0.584456 116.112 1.75337C114.098 2.86301 112.416 4.53429 111.248 6.58343C110.066 8.67483 109.458 11.069 109.491 13.5009C109.458 15.9329 110.066 18.327 111.248 20.4184C112.416 22.4671 114.099 24.1383 116.112 25.2485C118.182 26.4162 120.507 27 123.088 27C125.668 27 127.988 26.4162 130.046 25.2485C132.054 24.1306 133.735 22.4612 134.911 20.4184C135.103 20.0862 135.277 19.7484 135.438 19.4033H128.754Z" fill="black"/>
<path id="Vector_6" d="M139 8.42175H125.647V18.1114H139V8.42175Z" fill="white"/>
<path id="Vector_7" d="M13.3507 8.42175H0V18.1114H13.3507V8.42175Z" fill="white"/>
</g>
<defs>
<clipPath id="clip0_16_4729">
<rect width="139" height="27" fill="white"/>
</clipPath>
</defs>
</svg>
