<svg width="50" height="45" viewBox="0 0 50 45" fill="none" xmlns="http://www.w3.org/2000/svg">
<g id="&#208;&#187;&#208;&#190;&#208;&#179;&#208;&#190;">
<path id="Vector" d="M47.002 10.4711C44.9815 7.13101 42.0639 4.45178 38.5952 2.75111C34.9894 0.917038 30.838 0 26.1411 0H6.4825V11.2914H16.4984V8.38123H25.6455C29.9713 8.38123 33.4221 9.61018 35.998 12.0681C38.5738 14.526 39.8618 17.8531 39.8618 22.0495C39.8618 26.25 38.5738 29.5771 35.998 32.0308C33.4221 34.4846 29.9713 35.7198 25.6455 35.7364H16.4984V32.0339H6.4825V44.1176H26.1411C30.8319 44.1176 34.9833 43.2037 38.5952 41.3759C42.0639 39.6752 44.9815 36.996 47.002 33.6559C49.0007 30.3288 50 26.4631 50 22.0588C50 17.6545 49.0007 13.792 47.002 10.4711Z" fill="black"/>
<path id="Vector_2" d="M23.244 13.4749H0V29.8505H23.244V13.4749Z" fill="#29ABE2"/>
</g>
</svg>
