<svg width="48" height="47" viewBox="0 0 48 47" fill="none" xmlns="http://www.w3.org/2000/svg">
<g id="&#208;&#178;&#208;&#176;&#209;&#130;&#209;&#129;&#208;&#176;&#208;&#191;">
<g id="Group">
<path id="Vector" fill-rule="evenodd" clip-rule="evenodd" d="M39.2685 8.88205C35.3305 5.02168 30.0936 2.89482 24.514 2.89258C13.0175 2.89258 3.66061 12.0538 3.65612 23.3142C3.65451 26.9139 4.61497 30.4273 6.4403 33.5244L3.4812 44.1075L14.5382 41.2676C17.5847 42.8946 21.0148 43.7522 24.5057 43.7534H24.5141C24.5135 43.7534 24.5148 43.7534 24.5141 43.7534C36.0094 43.7534 45.3671 34.5912 45.3719 23.3306C45.374 17.8734 43.2064 12.7422 39.2685 8.88205ZM24.5141 40.3042H24.507C21.3964 40.3031 18.3453 39.4846 15.6835 37.9381L15.0505 37.5703L8.48914 39.2555L10.2406 32.9915L9.82831 32.3492C8.09299 29.6466 7.17647 26.5228 7.17783 23.3154C7.18155 13.9562 14.9587 6.34191 24.5211 6.34191C29.1515 6.34332 33.5043 8.11138 36.7774 11.32C40.0505 14.5285 41.852 18.7935 41.8501 23.3292C41.8462 32.6891 34.0694 40.3042 24.5141 40.3042Z" fill="white"/>
<path id="Vector_2" fill-rule="evenodd" clip-rule="evenodd" d="M34.0233 27.5909C33.5022 27.3355 30.9398 26.1011 30.4622 25.9307C29.9845 25.7604 29.637 25.6753 29.2896 26.1861C28.9422 26.6969 27.9434 27.8464 27.6394 28.187C27.3354 28.5274 27.0313 28.5703 26.5103 28.3146C25.9891 28.0592 24.3099 27.5204 22.3193 25.7819C20.7699 24.4286 19.724 22.7577 19.4199 22.2467C19.1159 21.7359 19.3875 21.4597 19.6485 21.2052C19.8829 20.9765 20.1697 20.6092 20.4303 20.3112C20.6908 20.0133 20.7777 19.8003 20.9514 19.46C21.1251 19.1193 21.0383 18.8213 20.908 18.5659C20.7777 18.3105 19.7354 15.7987 19.3012 14.7768C18.878 13.7819 18.4484 13.9167 18.1284 13.9008C17.8249 13.886 17.477 13.8829 17.1296 13.8829C16.7822 13.8829 16.2175 14.0107 15.7399 14.5214C15.2622 15.0324 13.9158 16.267 13.9158 18.7786C13.9158 21.2905 15.7833 23.717 16.0439 24.0575C16.3044 24.3982 19.7188 29.5524 24.9468 31.7629C26.1902 32.2887 27.161 32.6027 27.9178 32.8378C29.1663 33.2263 30.3025 33.1714 31.2004 33.04C32.2018 32.8935 34.2839 31.8056 34.7182 30.6137C35.1525 29.4215 35.1525 28.3997 35.0221 28.187C34.8919 27.9741 34.5444 27.8464 34.0233 27.5909Z" fill="white"/>
</g>
</g>
</svg>
