<svg width="36" height="35" viewBox="0 0 36 35" fill="none" xmlns="http://www.w3.org/2000/svg">
<circle cx="18" cy="17.5" r="17.5" fill="#E0E0E0"/>
<path d="M18 16C19.1249 16 20.2245 15.6921 21.1598 15.1152C22.0951 14.5383 22.8241 13.7184 23.2546 12.7591C23.685 11.7998 23.7977 10.7442 23.5782 9.72578C23.3588 8.70738 22.8171 7.77192 22.0217 7.03769C21.2263 6.30347 20.2128 5.80345 19.1096 5.60088C18.0063 5.39831 16.8627 5.50227 15.8235 5.89963C14.7842 6.29699 13.896 6.9699 13.271 7.83326C12.6461 8.69662 12.3125 9.71165 12.3125 10.75C12.3125 12.1424 12.9117 13.4777 13.9783 14.4623C15.0449 15.4469 16.4916 16 18 16ZM18 7C18.8035 7 19.5889 7.21994 20.257 7.63199C20.9251 8.04405 21.4458 8.62972 21.7533 9.31494C22.0607 10.0002 22.1412 10.7542 21.9844 11.4816C21.8277 12.209 21.4408 12.8772 20.8726 13.4017C20.3045 13.9261 19.5806 14.2833 18.7926 14.4279C18.0045 14.5726 17.1877 14.4984 16.4453 14.2146C15.703 13.9307 15.0685 13.4501 14.6222 12.8334C14.1758 12.2167 13.9375 11.4917 13.9375 10.75C13.9375 9.75544 14.3655 8.80161 15.1274 8.09835C15.8892 7.39509 16.9226 7 18 7Z" fill="#2B2D3A"/>
<path d="M18.8125 17.5H17.1875C14.8171 17.5 12.5438 18.3692 10.8677 19.9164C9.19163 21.4635 8.25 23.562 8.25 25.75C8.25 25.9489 8.3356 26.1397 8.48798 26.2803C8.64035 26.421 8.84701 26.5 9.0625 26.5H26.9375C27.153 26.5 27.3597 26.421 27.512 26.2803C27.6644 26.1397 27.75 25.9489 27.75 25.75C27.75 23.562 26.8084 21.4635 25.1323 19.9164C23.4562 18.3692 21.1829 17.5 18.8125 17.5ZM9.92375 25C10.1235 23.3505 10.9747 21.8267 12.3147 20.7199C13.6546 19.6131 15.3894 19.0008 17.1875 19H18.8125C20.6106 19.0008 22.3454 19.6131 23.6853 20.7199C25.0253 21.8267 25.8765 23.3505 26.0763 25H9.92375Z" fill="#2B2D3A"/>
</svg>
