<svg width="105" height="105" viewBox="0 0 105 105" fill="none" xmlns="http://www.w3.org/2000/svg">
<g filter="url(#filter0_d_16_5598)">
<circle cx="52.5" cy="52.5" r="37.5" fill="white"/>
</g>
<g opacity="0.65">
<path d="M72.043 64.9481H34.543C33.2998 64.9481 32.1075 64.4543 31.2284 63.5752C30.3493 62.6961 29.8555 61.5038 29.8555 60.2606V35.2606C29.8555 34.0174 30.3493 32.8251 31.2284 31.9461C32.1075 31.067 33.2998 30.5731 34.543 30.5731H72.043C73.2862 30.5731 74.4785 31.067 75.3575 31.9461C76.2366 32.8251 76.7305 34.0174 76.7305 35.2606V60.2606C76.7305 61.5038 76.2366 62.6961 75.3575 63.5752C74.4785 64.4543 73.2862 64.9481 72.043 64.9481ZM34.543 33.6981C34.1286 33.6981 33.7311 33.8627 33.4381 34.1558C33.1451 34.4488 32.9805 34.8462 32.9805 35.2606V60.2606C32.9805 60.675 33.1451 61.0725 33.4381 61.3655C33.7311 61.6585 34.1286 61.8231 34.543 61.8231H72.043C72.4574 61.8231 72.8548 61.6585 73.1478 61.3655C73.4409 61.0725 73.6055 60.675 73.6055 60.2606V35.2606C73.6055 34.8462 73.4409 34.4488 73.1478 34.1558C72.8548 33.8627 72.4574 33.6981 72.043 33.6981H34.543Z" fill="#2B2D3A"/>
<path d="M61.1056 74.3224H45.4806C45.2526 74.3253 45.0267 74.2783 44.8187 74.1847C44.6108 74.091 44.4259 73.953 44.277 73.7802C44.1281 73.6075 44.0188 73.4043 43.9568 73.1848C43.8948 72.9654 43.8816 72.735 43.9181 72.5099L45.4806 63.1349C45.5405 62.7652 45.7312 62.4293 46.018 62.1884C46.3048 61.9474 46.6686 61.8176 47.0431 61.8224H59.5431C59.9176 61.8176 60.2814 61.9474 60.5682 62.1884C60.855 62.4293 61.0457 62.7652 61.1056 63.1349L62.6681 72.5099C62.7046 72.735 62.6914 72.9654 62.6294 73.1848C62.5674 73.4043 62.4581 73.6075 62.3092 73.7802C62.1603 73.953 61.9754 74.091 61.7675 74.1847C61.5595 74.2783 61.3336 74.3253 61.1056 74.3224ZM47.3243 71.1974H59.2618L58.215 64.9474H48.3712L47.3243 71.1974Z" fill="#2B2D3A"/>
<path d="M65.793 74.3231H40.793C40.3786 74.3231 39.9811 74.1585 39.6881 73.8655C39.3951 73.5725 39.2305 73.175 39.2305 72.7606C39.2305 72.3462 39.3951 71.9488 39.6881 71.6558C39.9811 71.3627 40.3786 71.1981 40.793 71.1981H65.793C66.2074 71.1981 66.6048 71.3627 66.8978 71.6558C67.1909 71.9488 67.3555 72.3462 67.3555 72.7606C67.3555 73.175 67.1909 73.5725 66.8978 73.8655C66.6048 74.1585 66.2074 74.3231 65.793 74.3231Z" fill="#2B2D3A"/>
<path d="M75.168 57.1353H31.418C31.0036 57.1353 30.6061 56.9706 30.3131 56.6776C30.0201 56.3846 29.8555 55.9872 29.8555 55.5728C29.8555 55.1584 30.0201 54.7609 30.3131 54.4679C30.6061 54.1749 31.0036 54.0103 31.418 54.0103H75.168C75.5824 54.0103 75.9798 54.1749 76.2728 54.4679C76.5659 54.7609 76.7305 55.1584 76.7305 55.5728C76.7305 55.9872 76.5659 56.3846 76.2728 56.6776C75.9798 56.9706 75.5824 57.1353 75.168 57.1353Z" fill="#2B2D3A"/>
</g>
<defs>
<filter id="filter0_d_16_5598" x="0.0746222" y="0.0746222" width="104.851" height="104.851" filterUnits="userSpaceOnUse" color-interpolation-filters="sRGB">
<feFlood flood-opacity="0" result="BackgroundImageFix"/>
<feColorMatrix in="SourceAlpha" type="matrix" values="0 0 0 0 0 0 0 0 0 0 0 0 0 0 0 0 0 0 127 0" result="hardAlpha"/>
<feOffset/>
<feGaussianBlur stdDeviation="7.46269"/>
<feComposite in2="hardAlpha" operator="out"/>
<feColorMatrix type="matrix" values="0 0 0 0 0.716667 0 0 0 0 0.716667 0 0 0 0 0.716667 0 0 0 1 0"/>
<feBlend mode="normal" in2="BackgroundImageFix" result="effect1_dropShadow_16_5598"/>
<feBlend mode="normal" in="SourceGraphic" in2="effect1_dropShadow_16_5598" result="shape"/>
</filter>
</defs>
</svg>
