<svg width="35" height="35" viewBox="0 0 35 35" fill="none" xmlns="http://www.w3.org/2000/svg">
<circle cx="17.5" cy="17.5" r="17.5" fill="#E0E0E0"/>
<g clip-path="url(#clip0_13_110)">
<path d="M17.5 22.875C16.5729 22.875 15.6666 22.5891 14.8958 22.0534C14.1249 21.5177 13.5241 20.7564 13.1693 19.8656C12.8145 18.9748 12.7217 17.9946 12.9026 17.0489C13.0834 16.1033 13.5299 15.2346 14.1854 14.5529C14.841 13.8711 15.6762 13.4068 16.5855 13.2187C17.4948 13.0306 18.4373 13.1271 19.2938 13.4961C20.1504 13.8651 20.8824 14.4899 21.3975 15.2916C21.9126 16.0933 22.1875 17.0358 22.1875 18C22.1875 19.2929 21.6936 20.5329 20.8146 21.4471C19.9355 22.3614 18.7432 22.875 17.5 22.875ZM17.5 14.75C16.8819 14.75 16.2777 14.9406 15.7638 15.2977C15.2499 15.6548 14.8494 16.1624 14.6129 16.7563C14.3764 17.3501 14.3145 18.0036 14.435 18.634C14.5556 19.2645 14.8533 19.8436 15.2903 20.2981C15.7273 20.7526 16.2842 21.0622 16.8903 21.1876C17.4965 21.313 18.1249 21.2486 18.6959 21.0026C19.2669 20.7566 19.755 20.3401 20.0983 19.8056C20.4417 19.2711 20.625 18.6428 20.625 18C20.625 17.138 20.2958 16.3114 19.7097 15.7019C19.1237 15.0924 18.3288 14.75 17.5 14.75Z" fill="#2B2D3A"/>
<path d="M21.4062 30.1875H13.5938C12.7649 30.1875 11.9701 29.8451 11.384 29.2356C10.798 28.6261 10.4688 27.7995 10.4688 26.9375V24.8657C10.4702 24.7043 10.5177 24.5471 10.6054 24.4139C10.693 24.2808 10.8168 24.1779 10.9609 24.1182L13.8047 22.9319C13.9011 22.8875 14.0051 22.8638 14.1106 22.8623C14.216 22.8607 14.3206 22.8814 14.4182 22.9231C14.5157 22.9648 14.6041 23.0265 14.6781 23.1047C14.7521 23.1828 14.8101 23.2758 14.8486 23.3778C14.8871 23.4799 14.9054 23.5891 14.9022 23.6987C14.8991 23.8083 14.8747 23.9161 14.8305 24.0156C14.7862 24.1152 14.7231 24.2044 14.6448 24.2778C14.5665 24.3513 14.4747 24.4076 14.375 24.4432L12.0312 25.4182V26.9375C12.0312 27.3685 12.1959 27.7818 12.4889 28.0866C12.7819 28.3913 13.1793 28.5625 13.5938 28.5625H21.4062C21.8207 28.5625 22.2181 28.3913 22.5111 28.0866C22.8041 27.7818 22.9688 27.3685 22.9688 26.9375V25.4182L20.625 24.4432C20.4323 24.3634 20.278 24.2074 20.1959 24.0093C20.1139 23.8112 20.1108 23.5873 20.1875 23.3869C20.2642 23.1865 20.4142 23.026 20.6047 22.9407C20.7952 22.8553 21.0104 22.8522 21.2031 22.9319L24.0469 24.1182C24.191 24.1779 24.3148 24.2808 24.4024 24.4139C24.4901 24.5471 24.5377 24.7043 24.5391 24.8657V26.9375C24.5391 27.365 24.458 27.7883 24.3004 28.1831C24.1429 28.578 23.912 28.9366 23.621 29.2385C23.33 29.5404 22.9846 29.7796 22.6045 29.9425C22.2245 30.1053 21.8173 30.1886 21.4062 30.1875Z" fill="#2B2D3A"/>
<path d="M12.0313 13.9375C11.2587 13.9375 10.5034 13.6992 9.86106 13.2528C9.21868 12.8065 8.718 12.172 8.42235 11.4297C8.12669 10.6873 8.04934 9.8705 8.20006 9.08245C8.35078 8.2944 8.72282 7.57053 9.26912 7.00238C9.81541 6.43423 10.5114 6.04731 11.2692 5.89056C12.0269 5.73381 12.8123 5.81426 13.5261 6.12174C14.2399 6.42922 14.85 6.94992 15.2792 7.618C15.7084 8.28607 15.9375 9.07152 15.9375 9.875C15.9375 10.4085 15.8365 10.9368 15.6402 11.4297C15.4438 11.9225 15.1561 12.3704 14.7934 12.7476C14.4307 13.1249 14 13.4241 13.5261 13.6283C13.0522 13.8324 12.5442 13.9375 12.0313 13.9375ZM12.0313 7.4375C11.5677 7.4375 11.1146 7.58046 10.7291 7.84829C10.3437 8.11613 10.0433 8.49682 9.86591 8.94221C9.68852 9.38761 9.6421 9.87771 9.73254 10.3505C9.82297 10.8234 10.0462 11.2577 10.374 11.5986C10.7017 11.9395 11.1194 12.1716 11.574 12.2657C12.0287 12.3597 12.4999 12.3114 12.9282 12.127C13.3564 11.9425 13.7225 11.63 13.98 11.2292C14.2375 10.8284 14.375 10.3571 14.375 9.875C14.375 9.22854 14.1281 8.60855 13.6885 8.15143C13.249 7.69431 12.6529 7.4375 12.0313 7.4375Z" fill="#2B2D3A"/>
<path d="M11.25 20.7544H8.90625C8.07745 20.7544 7.28259 20.4119 6.69654 19.8025C6.11049 19.193 5.78125 18.3663 5.78125 17.5044V16.0825C5.7811 15.9198 5.82793 15.7607 5.91569 15.626C6.00344 15.4913 6.12807 15.3871 6.27344 15.3269L8.76563 14.3112C8.95542 14.2329 9.16717 14.2349 9.35554 14.3169C9.54391 14.3989 9.69391 14.5544 9.77344 14.75C9.81149 14.8492 9.83036 14.9552 9.82897 15.0621C9.82757 15.1689 9.80593 15.2744 9.7653 15.3725C9.72466 15.4706 9.66582 15.5594 9.59215 15.6338C9.51847 15.7082 9.43141 15.7668 9.33594 15.8062L7.34375 16.635V17.5044C7.34375 17.9353 7.50837 18.3487 7.8014 18.6534C8.09442 18.9582 8.49185 19.1294 8.90625 19.1294H11.25C11.4572 19.1294 11.6559 19.215 11.8024 19.3673C11.9489 19.5197 12.0312 19.7264 12.0312 19.9419C12.0312 20.1573 11.9489 20.364 11.8024 20.5164C11.6559 20.6688 11.4572 20.7544 11.25 20.7544Z" fill="#2B2D3A"/>
<path d="M22.9688 13.9375C22.1962 13.9375 21.4409 13.6992 20.7986 13.2528C20.1562 12.8065 19.6555 12.172 19.3598 11.4297C19.0642 10.6873 18.9868 9.8705 19.1376 9.08245C19.2883 8.2944 19.6603 7.57053 20.2066 7.00238C20.7529 6.43423 21.4489 6.04731 22.2067 5.89056C22.9644 5.73381 23.7498 5.81426 24.4636 6.12174C25.1774 6.42922 25.7875 6.94992 26.2167 7.618C26.6459 8.28607 26.875 9.07152 26.875 9.875C26.875 10.9524 26.4635 11.9858 25.7309 12.7476C24.9983 13.5095 24.0048 13.9375 22.9688 13.9375ZM22.9688 7.4375C22.5052 7.4375 22.0521 7.58046 21.6666 7.84829C21.2812 8.11613 20.9808 8.49682 20.8034 8.94221C20.626 9.38761 20.5796 9.87771 20.67 10.3505C20.7605 10.8234 20.9837 11.2577 21.3115 11.5986C21.6392 11.9395 22.0569 12.1716 22.5115 12.2657C22.9662 12.3597 23.4374 12.3114 23.8657 12.127C24.2939 11.9425 24.66 11.63 24.9175 11.2292C25.175 10.8284 25.3125 10.3571 25.3125 9.875C25.3125 9.22854 25.0656 8.60855 24.626 8.15143C24.1865 7.69431 23.5904 7.4375 22.9688 7.4375Z" fill="#2B2D3A"/>
<path d="M26.0938 20.7544H23.75C23.5428 20.7544 23.3441 20.6688 23.1976 20.5164C23.0511 20.364 22.9688 20.1574 22.9688 19.9419C22.9688 19.7264 23.0511 19.5197 23.1976 19.3674C23.3441 19.215 23.5428 19.1294 23.75 19.1294H26.0938C26.5082 19.1294 26.9056 18.9582 27.1986 18.6534C27.4916 18.3487 27.6562 17.9354 27.6562 17.5044V16.635L25.6641 15.8225C25.5686 15.7831 25.4815 15.7245 25.4079 15.6501C25.3342 15.5757 25.2753 15.4868 25.2347 15.3887C25.1941 15.2906 25.1724 15.1851 25.171 15.0783C25.1696 14.9715 25.1885 14.8655 25.2266 14.7663C25.3016 14.5662 25.4498 14.4052 25.6386 14.3185C25.8274 14.2317 26.0416 14.2262 26.2344 14.3031L28.7266 15.3188C28.8719 15.379 28.9966 15.4832 29.0843 15.6179C29.1721 15.7526 29.2189 15.9117 29.2188 16.0744V17.4963C29.2198 17.9237 29.1397 18.3472 28.9831 18.7425C28.8265 19.1377 28.5965 19.497 28.3062 19.7996C28.0159 20.1023 27.6711 20.3424 27.2914 20.5062C26.9118 20.67 26.5048 20.7544 26.0938 20.7544Z" fill="#2B2D3A"/>
</g>
<defs>
<clipPath id="clip0_13_110">
<rect width="25" height="26" fill="white" transform="translate(5 5)"/>
</clipPath>
</defs>
</svg>
