<svg width="101" height="101" viewBox="0 0 101 101" fill="none" xmlns="http://www.w3.org/2000/svg">
<g filter="url(#filter0_d_16_5599)">
<circle cx="50.8364" cy="50.0576" r="37.5" fill="white"/>
</g>
<g opacity="0.6">
<path d="M29.6047 46.472V59.3798C29.6047 60.0364 30.1266 60.5809 30.756 60.5809H34.6091C35.2385 63.0792 37.4029 64.9209 39.9819 64.9209C42.5608 64.9209 44.7407 63.0792 45.3547 60.5809H60.199C60.8284 63.0792 62.9929 64.9209 65.5718 64.9209C68.1507 64.9209 70.3306 63.0792 70.9446 60.5809H73.7999C74.4293 60.5809 74.9512 60.0364 74.9512 59.3798V48.0575C74.9512 47.8012 74.8744 47.561 74.7363 47.3688L70.745 41.4914C70.5301 41.1711 70.1771 40.979 69.8086 40.979H61.4885V37.1995C61.4885 36.5429 60.9665 35.9984 60.3371 35.9984H39.1222C38.324 32.0108 34.9314 29 30.8788 29C26.2275 29 22.4512 32.9396 22.4512 37.7921C22.4512 42.1801 25.5674 45.8314 29.6047 46.472ZM39.9819 62.5187C38.1858 62.5187 36.7275 60.9973 36.7275 59.1236C36.7275 57.2499 38.1858 55.7285 39.9819 55.7285C41.7779 55.7285 43.2363 57.2499 43.2363 59.1236C43.2363 60.9973 41.7626 62.5187 39.9819 62.5187ZM65.5718 62.5187C63.7757 62.5187 62.3174 60.9973 62.3174 59.1236C62.3174 57.2499 63.7757 55.7285 65.5718 55.7285C67.3679 55.7285 68.8262 57.2499 68.8262 59.1236C68.8262 60.9973 67.3679 62.5187 65.5718 62.5187ZM72.6486 48.4578V48.65H66.3854V43.3972H69.21L72.6486 48.4578ZM64.0828 43.3972V49.8511C64.0828 50.5077 64.6047 51.0522 65.2341 51.0522H72.6486V58.1787H71.0521C70.6222 55.4242 68.3196 53.3263 65.5718 53.3263C63.96 53.3263 62.5016 54.0469 61.4885 55.2V43.3972H64.0828ZM59.1858 58.1947H45.4621C45.0323 55.4402 42.7297 53.3423 39.9819 53.3423C37.2341 53.3423 34.9314 55.4402 34.5016 58.1947H31.9073V46.52C35.8832 46.0076 38.9994 42.6125 39.2757 38.4166H59.1858V58.1947ZM30.8788 31.4182C34.256 31.4182 37.0038 34.2848 37.0038 37.8081C37.0038 41.3313 34.256 44.1979 30.8788 44.1979C27.5016 44.1979 24.7538 41.3313 24.7538 37.8081C24.7538 34.2848 27.5016 31.4182 30.8788 31.4182Z" fill="#2B2D3A"/>
<path d="M29.3436 40.5305C29.5585 40.7547 29.8501 40.8828 30.1572 40.8828C30.4642 40.8828 30.7559 40.7547 30.9708 40.5305L34.5782 36.7671C35.0234 36.3026 35.0234 35.5339 34.5782 35.0695C34.133 34.6051 33.3962 34.6051 32.951 35.0695L30.1572 37.9842L28.8063 36.5749C28.3611 36.1105 27.6243 36.1105 27.1791 36.5749C26.7339 37.0393 26.7339 37.808 27.1791 38.2724L29.3436 40.5305Z" fill="#2B2D3A"/>
</g>
<defs>
<filter id="filter0_d_16_5599" x="0.884811" y="0.106003" width="99.9032" height="99.9032" filterUnits="userSpaceOnUse" color-interpolation-filters="sRGB">
<feFlood flood-opacity="0" result="BackgroundImageFix"/>
<feColorMatrix in="SourceAlpha" type="matrix" values="0 0 0 0 0 0 0 0 0 0 0 0 0 0 0 0 0 0 127 0" result="hardAlpha"/>
<feOffset/>
<feGaussianBlur stdDeviation="6.22581"/>
<feComposite in2="hardAlpha" operator="out"/>
<feColorMatrix type="matrix" values="0 0 0 0 0.716667 0 0 0 0 0.716667 0 0 0 0 0.716667 0 0 0 1 0"/>
<feBlend mode="normal" in2="BackgroundImageFix" result="effect1_dropShadow_16_5599"/>
<feBlend mode="normal" in="SourceGraphic" in2="effect1_dropShadow_16_5599" result="shape"/>
</filter>
</defs>
</svg>
